<svg width="30" height="26" viewBox="0 0 30 26" fill="none" xmlns="http://www.w3.org/2000/svg">
<g id="right-arrow 4">
<g id="Group">
<g id="Group_2">
<path id="Vector" d="M15.8295 25.7021C15.8299 25.7018 15.8303 25.7016 15.8306 25.7012L21.9244 20.3944C22.3809 19.9968 22.3792 19.3538 21.9204 18.958C21.4617 18.5623 20.7197 18.5639 20.2631 18.9614L16.1719 22.5244L16.1719 1.01562C16.1719 0.454695 15.6472 -2.53137e-07 15 -2.77892e-07C14.3528 -3.02646e-07 13.8281 0.454695 13.8281 1.01562L13.8281 22.5244L9.73688 18.9615C9.28032 18.5639 8.53834 18.5624 8.07961 18.9581C7.62077 19.3538 7.61918 19.9969 8.07563 20.3944L14.1694 25.7013C14.1697 25.7016 14.1701 25.7018 14.1705 25.7022C14.6286 26.0999 15.373 26.0987 15.8295 25.7021Z" fill="white"/>
</g>
</g>
</g>
</svg>
