<svg width="60" height="60" viewBox="0 0 60 60" fill="none" xmlns="http://www.w3.org/2000/svg">
<g id="g4074">
<g id="g4076">
<g id="Clip path group">
<mask id="mask0_1440_44" style="mask-type:luminance" maskUnits="userSpaceOnUse" x="0" y="0" width="60" height="60">
<g id="clipPath4082">
<path id="path4080" d="M0 3.8147e-06H60V60H0V3.8147e-06Z" fill="white"/>
</g>
</mask>
<g mask="url(#mask0_1440_44)">
<g id="g4078">
<g id="g4084">
<path id="path4086" d="M5.64062 57.4001L21.0032 42.0376" stroke="#8EC43F" stroke-width="3" stroke-miterlimit="10" stroke-linecap="round" stroke-linejoin="round"/>
</g>
<g id="g4088">
<path id="path4090" d="M54.3601 57.4001L38.8203 41.8604" stroke="#8EC43F" stroke-width="3" stroke-miterlimit="10" stroke-linecap="round" stroke-linejoin="round"/>
</g>
<g id="g4092">
<path id="path4094" d="M35.2734 58.825H50.9169C53.6034 58.825 55.7812 56.6471 55.7812 53.9606V26.7882C55.7812 25.4987 55.2691 24.2618 54.3575 23.3497L50.1469 19.1371" stroke="#8EC43F" stroke-width="3" stroke-miterlimit="10" stroke-linecap="round" stroke-linejoin="round"/>
</g>
<g id="g4096">
<path id="path4098" d="M9.81574 19.1876L5.64445 23.3492C4.73156 24.2617 4.21875 25.4993 4.21875 26.79V53.9605C4.21875 56.647 6.39656 58.825 9.08309 58.825H24.7264" stroke="#8EC43F" stroke-width="3" stroke-miterlimit="10" stroke-linecap="round" stroke-linejoin="round"/>
</g>
<g id="g4100">
<path id="path4102" d="M38.5157 7.49707L32.1989 1.17656C30.4941 1.17598 29.5382 1.17574 27.8334 1.17516L21.5078 7.49695" stroke="#8EC43F" stroke-width="3" stroke-miterlimit="10" stroke-linecap="round" stroke-linejoin="round"/>
</g>
<g id="g4104">
<path id="path4106" d="M55.2976 25.2606L33.4569 47.1148C31.5577 49.015 28.4778 49.0159 26.5776 47.1168L4.78906 25.3416" stroke="#8EC43F" stroke-width="3" stroke-miterlimit="10" stroke-linecap="round" stroke-linejoin="round"/>
</g>
<g id="g4108">
<path id="path4110" d="M31.4203 29.583H29.5561C26.8241 29.583 24.6095 27.3683 24.6095 24.6364C24.6095 21.9045 26.8241 19.6897 29.5561 19.6897C32.1225 19.6897 34.2029 21.7701 34.2029 24.3365V27.0492C34.2029 28.6208 35.477 29.8948 37.0487 29.8948C38.6203 29.8948 39.8944 28.6208 39.8944 27.0492V24.6476C39.8944 19.1841 35.4654 14.7551 30.0019 14.7551C24.5384 14.7551 20.1094 19.1841 20.1094 24.6476C20.1094 30.1947 24.6062 34.6917 30.1534 34.6917H37.2758" stroke="#8EC43F" stroke-width="3" stroke-miterlimit="10" stroke-linecap="round" stroke-linejoin="round"/>
</g>
<g id="g4112">
<path id="path4114" d="M9.84375 30.3806V11.0125C9.84375 9.07077 11.4177 7.49683 13.3594 7.49683H46.6406C48.5823 7.49683 50.1562 9.07077 50.1562 11.0125V29.9968" stroke="#8EC43F" stroke-width="3" stroke-miterlimit="10" stroke-linecap="round" stroke-linejoin="round"/>
</g>
</g>
</g>
</g>
</g>
</g>
</svg>
