<svg width="40" height="40" viewBox="0 0 40 40" fill="none" xmlns="http://www.w3.org/2000/svg">
<g class="transition-kaemde group-hover:opacity-100" opacity="0.5" clip-path="url(#clip0_1442_438)">
<path d="M29.999 0.00832258L24.8119 0C18.9844 0 15.2185 3.86376 15.2185 9.84395V14.3827H10.0031C9.55245 14.3827 9.1875 14.748 9.1875 15.1987V21.7748C9.1875 22.2255 9.55286 22.5904 10.0031 22.5904H15.2185V39.184C15.2185 39.6346 15.5834 39.9996 16.0341 39.9996H22.8386C23.2893 39.9996 23.6542 39.6342 23.6542 39.184V22.5904H29.7522C30.2029 22.5904 30.5678 22.2255 30.5678 21.7748L30.5703 15.1987C30.5703 14.9823 30.4842 14.7751 30.3314 14.6219C30.1787 14.4688 29.9707 14.3827 29.7543 14.3827H23.6542V10.5351C23.6542 8.68586 24.0949 7.74708 26.5039 7.74708L29.9981 7.74583C30.4484 7.74583 30.8133 7.38047 30.8133 6.93021V0.823936C30.8133 0.3741 30.4488 0.00915484 29.999 0.00832258Z" fill="#F3F3F3"/>
</g>
<defs>
<clipPath id="clip0_1442_438">
<rect width="40" height="39.9996" fill="#f3f3f3"/>
</clipPath>
</defs>
</svg> 