<svg width="40" height="40" viewBox="0 0 40 40" fill="none" xmlns="http://www.w3.org/2000/svg">
<g id="linkedin" class="transition-kaemde group-hover:opacity-100
" opacity="0.5">
<path id="path5348" d="M2.5625 13.7802H9.01336V38.8281H2.5625V13.7802Z" fill="#F3F3F3"/>
<g id="g5350">
<g id="Clip path group">
<mask id="mask0_1442_457" style="mask-type:luminance" maskUnits="userSpaceOnUse" x="0" y="0" width="40" height="40">
<g id="clipPath5356">
<path id="path5354" d="M0 3.8147e-06H40V40H0V3.8147e-06Z" fill="white"/>
</g>
</mask>
<g mask="url(#mask0_1442_457)">
<g id="g5352">
<path id="path5358" d="M2.5625 13.7802H9.01336V38.8281H2.5625V13.7802Z" fill="#F3F3F3"/>
<g id="g5360">
<path id="path5362" d="M5.78898 8.84351C3.67391 8.84351 1.95312 7.12272 1.95312 5.00757C1.95312 2.89249 3.67391 1.17179 5.78898 1.17179C7.90406 1.17179 9.62492 2.89249 9.62492 5.00757C9.62492 7.12272 7.90406 8.84351 5.78898 8.84351Z" fill="#F3F3F3"/>
</g>
<g id="g5364">
<path id="path5366" d="M5.78898 8.84351C3.67391 8.84351 1.95312 7.12272 1.95312 5.00757C1.95312 2.89249 3.67391 1.17179 5.78898 1.17179C7.90406 1.17179 9.62492 2.89249 9.62492 5.00757C9.62492 7.12272 7.90406 8.84351 5.78898 8.84351Z" fill="#F3F3F3"/>
</g>
<g id="g5368">
<path id="path5370" d="M31.5955 38.8281L31.5868 24.1661C31.5868 21.4109 29.3448 19.169 26.5892 19.169C23.8334 19.169 21.5916 21.4109 21.5916 24.1666V38.8281H15.1406V13.7801H21.1585V17.1298L22.431 17.137L22.6634 16.7764C24.2082 14.378 26.8396 12.9462 29.7024 12.9462C34.2787 12.9462 37.943 16.442 38.0445 20.9049L38.047 21.0134V38.8281H31.5955Z" fill="#F3F3F3"/>
</g>
<g id="g5372">
<path id="path5374" d="M31.5955 38.8281L31.5868 24.1661C31.5868 21.4109 29.3448 19.169 26.5892 19.169C23.8334 19.169 21.5916 21.4109 21.5916 24.1666V38.8281H15.1406V13.7801H21.1585V17.1298L22.431 17.137L22.6634 16.7764C24.2082 14.378 26.8396 12.9462 29.7024 12.9462C34.2787 12.9462 37.943 16.442 38.0445 20.9049L38.047 21.0134V38.8281H31.5955Z" fill="#F3F3F3"/>
</g>
</g>
</g>
</g>
</g>
</g>
</svg>