<svg width="220" height="90" viewBox="0 0 220 90" fill="none" xmlns="http://www.w3.org/2000/svg">
<g id="Logo" clip-path="url(#clip0_1429_46)">
<g id="Warstwa_x0020_1">
<path id="Vector" d="M62.712 10.8877V24.4051C70.5402 16.7181 73.4213 13.3048 75.9165 10.8877H82.0673L68.389 25.6566L82.1531 41.462H75.8307L64.8625 29.1982L62.7124 31.3571V41.462H57.7656V10.8877H62.7124H62.712Z" fill="#434342"/>
<path id="Vector_2" d="M95.7865 20.7773L94.8414 15.9398H94.2387L93.2061 20.8635L90.7557 28.5076H98.2814L95.7865 20.7769V20.7773ZM91.96 10.8877H97.1647L108.175 41.4623H102.969L100.002 33.5164H89.0772C88.0869 36.4968 87.3132 38.4819 86.3233 41.4623H80.9922L91.9593 10.8877H91.96Z" fill="#434342"/>
<path id="Vector_3" d="M130.194 15.8532H115.098V23.6711H128.991V28.6795H115.098V36.4531H130.194V41.4612H110.109V10.8447H130.194V15.8532Z" fill="#434342"/>
<path id="Vector_4" d="M138.972 41.4623H134.023V10.8877H139.572L147.959 30.7523L156.434 10.8877H162.025V41.4623H157.034V27.4278L157.982 19.1355H157.552L154.971 26.3469L149.982 37.2297H146.066L141.036 26.3469L138.498 19.0079H138.07L138.972 27.4707V41.4623Z" fill="#434342"/>
<path id="Vector_5" d="M177.12 36.4535C180.519 36.4535 183.527 35.1995 183.527 32.0052V20.5172C183.527 17.2785 180.519 15.8961 177.12 15.8961H171.144V36.4535H177.12ZM166.195 41.462V10.8877H177.12C183.057 10.8877 188.519 13.8252 188.519 20.5172V32.0052C188.519 38.6554 183.057 41.4623 177.12 41.4623H166.195V41.462Z" fill="#434342"/>
<path id="Vector_6" d="M212.554 15.8532H197.459V23.6711H211.351V28.6795H197.459V36.4531H212.554V41.4612H192.469V10.8447H212.554V15.8532Z" fill="#434342"/>
<path id="Vector_7" fill-rule="evenodd" clip-rule="evenodd" d="M3.68648 51.5635C3.61887 51.5296 3.55017 51.4967 3.48438 51.46C3.55017 51.4971 3.61887 51.5299 3.68648 51.5635Z" fill="#96C22C"/>
<path id="Vector_8" fill-rule="evenodd" clip-rule="evenodd" d="M4.85396 52.0314C4.77444 52.0073 4.69563 51.982 4.61719 51.9561C4.69563 51.982 4.7748 52.0073 4.85396 52.0314Z" fill="#96C22C"/>
<path id="Vector_9" fill-rule="evenodd" clip-rule="evenodd" d="M6.08911 52.2729C6.01926 52.2654 5.95302 52.2533 5.88281 52.2451C5.95266 52.2533 6.01926 52.2654 6.08911 52.2729Z" fill="#96C22C"/>
<path id="Vector_10" fill-rule="evenodd" clip-rule="evenodd" d="M4.26011 51.8262C4.1831 51.7952 4.10754 51.767 4.03125 51.7324C4.10718 51.7667 4.1831 51.7952 4.26011 51.8262Z" fill="#96C22C"/>
<path id="Vector_11" d="M216.791 6.43916C215.127 6.43916 213.774 5.08418 213.774 3.41001C213.774 1.73873 215.127 0.380135 216.791 0.380135C218.459 0.380135 219.808 1.73873 219.808 3.41001C219.808 5.08418 218.459 6.43916 216.791 6.43916ZM216.791 0.19043C215.019 0.19043 213.586 1.63125 213.586 3.41001C213.586 5.18805 215.019 6.62959 216.791 6.62959C218.562 6.62959 219.999 5.18805 219.999 3.41001C219.999 1.63125 218.562 0.19043 216.791 0.19043Z" fill="#434342"/>
<path id="Vector_12" d="M216.057 2.33247V3.51398H217.045C217.248 3.51398 217.404 3.45591 217.507 3.34627C217.612 3.23447 217.667 3.09634 217.667 2.93008C217.667 2.76958 217.613 2.63037 217.507 2.51135C217.404 2.39162 217.251 2.33283 217.051 2.33283H216.057L216.057 2.33247ZM218.337 5.11421H217.73L216.745 3.98824H216.057V5.11421H215.539V1.85352C215.704 1.85352 215.956 1.8546 216.294 1.85604C216.632 1.85748 216.881 1.85748 217.051 1.85748C217.406 1.85748 217.687 1.96135 217.892 2.17053C218.092 2.37827 218.195 2.63037 218.195 2.92142C218.195 3.18001 218.122 3.40254 217.979 3.58972C217.834 3.7787 217.613 3.89447 217.315 3.93775L218.283 5.02188L218.337 5.11421H218.337Z" fill="#434342"/>
<path id="Vector_13" d="M8.52053 74.8572C8.45408 75.1811 8.35028 75.4235 8.21307 75.5922C8.07334 75.761 7.93865 75.8674 7.8097 75.9103C7.68111 75.9554 7.61753 75.9864 7.61753 76.0023C6.78888 76.781 5.69982 77.9506 4.34998 79.5108C3.00087 81.0739 2.07272 82.2947 1.56555 83.1747C1.53286 83.2126 1.52101 83.2648 1.52352 83.3381C1.54292 83.6154 2.14528 83.7196 3.33635 83.6425C5.07088 83.5285 6.41856 83.3171 7.38334 83.0066C7.55575 82.9457 7.70194 82.9074 7.82478 82.8999C8.00114 82.888 8.09238 82.9457 8.09992 83.0679C8.11501 83.2969 8.02593 83.5638 7.83484 83.8657C7.64447 84.1669 7.42536 84.3288 7.18111 84.3472C6.95303 84.3616 6.83342 84.2801 6.82264 84.1034C5.76627 84.0857 4.92145 84.094 4.29072 84.1358C3.62514 84.1762 2.8967 84.2577 2.10361 84.371C1.31232 84.4835 0.853274 84.5445 0.730791 84.5538C0.294376 84.5816 0.0619801 84.3915 0.0350409 83.9872C0.00558735 83.5148 0.147826 83.1163 0.459603 82.7974C3.31695 79.6457 5.45557 77.0857 6.8758 75.1234L5.45844 75.2172C4.09065 75.3044 3.30259 75.4797 3.09031 75.7401C3.0745 75.7574 3.00159 75.8617 2.873 76.046C2.74405 76.2317 2.61941 76.4016 2.49836 76.5599C2.37552 76.7179 2.29686 76.7983 2.26202 76.8008C2.10469 76.8102 2.02208 76.7546 2.01453 76.6309C1.96748 75.8927 2.13019 75.3492 2.50303 74.9972C2.87623 74.6466 3.55977 74.4385 4.55975 74.3729C4.62943 74.3689 4.7415 74.361 4.90026 74.3501C5.05831 74.3404 5.24221 74.3238 5.4509 74.3018C5.66067 74.2791 5.86217 74.2614 6.05434 74.2495C6.75476 74.2052 7.3388 74.2016 7.80826 74.2423C8.27557 74.2823 8.51694 74.3981 8.52843 74.5914C8.53598 74.6985 8.53454 74.7876 8.51945 74.8572H8.52053Z" fill="#2B2B2A"/>
<path id="Vector_14" d="M19.2315 76.0939C19.0674 76.0167 18.8558 75.7181 18.5922 75.1959C18.3307 74.6736 18.1543 74.4176 18.0674 74.4223C17.5261 74.4576 16.9467 75.3033 16.3329 76.958C15.7172 78.612 15.353 79.9132 15.2391 80.8571C15.1935 81.2643 15.1831 81.6357 15.205 81.9697C15.2603 82.832 15.5322 83.2464 16.0232 83.2151C16.7233 83.1689 17.4622 82.4018 18.2358 80.9133C19.011 79.4231 19.3425 77.8186 19.2315 76.0935V76.0939ZM21.0429 75.5796C21.053 75.721 20.9301 75.8663 20.6758 76.0135C20.4212 76.1617 20.1888 76.2454 19.9801 76.2569C20.1137 78.3166 19.6916 80.108 18.7186 81.6357C17.743 83.1656 16.7312 83.9634 15.6802 84.0305C14.6651 84.0969 14.1102 83.3914 14.0139 81.9145C13.9888 81.5102 13.9974 81.1045 14.042 80.6948C14.1001 80.2342 14.2183 79.6337 14.4001 78.8984C14.5793 78.1623 14.8279 77.3602 15.1414 76.4924C15.455 75.625 15.8591 74.8792 16.3548 74.2545C16.8519 73.631 17.372 73.3024 17.9144 73.2653L18.0983 73.2534C18.0835 73.0078 18.1385 72.7928 18.2685 72.6071C18.3975 72.4242 18.5843 72.3218 18.8299 72.3066C19.0753 72.3081 19.3271 72.809 19.5846 73.8066C19.8432 74.8045 20.1568 75.3095 20.5271 75.3199C20.863 75.3509 21.0343 75.4368 21.0433 75.5782L21.0429 75.5796Z" fill="#2B2B2A"/>
<path id="Vector_15" d="M28.3909 73.3544C27.345 74.0566 26.3727 74.9723 25.4689 76.1011C24.5663 77.2239 24.1234 77.9567 24.146 78.291C24.1877 78.924 24.5085 79.698 25.1155 80.6104C25.7157 81.5254 26.2408 82.1436 26.6837 82.4692C27.0339 82.7275 27.2142 82.9475 27.2265 83.1213C27.2329 83.2284 27.1586 83.2847 27.0012 83.2955C26.6496 83.3189 26.2322 83.1047 25.7452 82.6488C25.2595 82.1944 24.8386 81.7266 24.4815 81.2491C24.1249 80.7677 23.7502 80.2169 23.3601 79.5872L22.7438 78.647C22.1274 80.7875 21.8181 82.1324 21.8181 82.6802C21.825 82.8025 21.6759 83.0091 21.3692 83.3045C21.0628 83.5992 20.8146 83.7485 20.622 83.7607C20.4978 83.7694 20.4324 83.6962 20.4223 83.5375C20.4177 83.4679 20.4486 83.2959 20.5211 83.0265C20.9313 81.7667 21.3207 80.438 21.6892 79.0477C22.0563 77.6538 22.4615 76.0477 22.9072 74.2279C23.3537 72.4076 23.6884 71.0646 23.9147 70.2026C23.9711 69.9855 23.9963 69.825 23.9887 69.7208C23.9848 69.6508 23.9679 69.5855 23.9366 69.5253C23.9079 69.4654 23.8899 69.4164 23.8885 69.3825C23.8835 69.3121 23.9029 69.1978 23.9463 69.0341C24.2761 67.8828 24.5688 67.1179 24.8253 66.7403C25.0828 66.3602 25.4998 66.1539 26.0785 66.1153C26.3242 66.1001 26.4589 66.1715 26.4872 66.3277C25.5745 68.5223 24.845 70.4864 24.2976 72.2158C23.7484 73.9466 23.2851 75.8472 22.9097 77.9199L24.0469 76.7626C24.8059 75.9882 25.5997 75.1905 26.4265 74.3689C27.253 73.5473 27.7232 73.0806 27.8385 72.9667C28.29 72.5836 28.6377 72.3853 28.8816 72.3694C28.9868 72.3636 29.0414 72.395 29.0461 72.4643C29.0594 72.6572 28.8407 72.9544 28.3917 73.3547L28.3909 73.3544Z" fill="#2B2B2A"/>
<path id="Vector_16" d="M33.8913 73.1821C33.7864 73.1889 33.6058 73.1839 33.3486 73.1644C33.0921 73.1467 32.8759 73.1424 32.7028 73.1525C32.4578 73.1701 32.197 73.2206 31.9201 73.3104C31.4909 73.4619 30.8396 74.5497 29.9682 76.5762C29.0965 78.6006 28.6931 80.0969 28.7538 81.0642C28.7739 81.3632 28.8691 81.5056 29.0466 81.4937C29.4133 81.471 30.0322 80.894 30.8993 79.7583C31.7663 78.6258 32.3346 77.8219 32.6022 77.344C32.9959 76.6126 33.3482 75.8249 33.6643 74.9857C33.98 74.1436 34.128 73.5907 34.1097 73.3278C34.104 73.2206 34.0569 73.172 33.9693 73.1777L33.891 73.1817L33.8913 73.1821ZM36.0773 80.085C36.0605 80.103 35.9872 80.1835 35.855 80.3241C35.7235 80.4655 35.6151 80.5759 35.5325 80.6487C35.4495 80.727 35.3291 80.8431 35.1729 81.0051C35.0159 81.167 34.8784 81.2939 34.7616 81.3881C34.6456 81.4851 34.5037 81.599 34.3367 81.7332C34.1693 81.8681 34.0217 81.9734 33.8945 82.0394C33.7685 82.1119 33.6359 82.1754 33.4976 82.2367C33.3615 82.3005 33.2318 82.3348 33.1104 82.3424C32.7433 82.3644 32.5081 82.1613 32.4107 81.726C32.363 80.9874 32.5655 79.6071 33.0138 77.5824C30.8774 80.9874 29.3002 82.7214 28.2847 82.7881C27.8659 82.8152 27.6353 82.5162 27.5954 81.8804C27.5423 81.0739 27.7122 79.9624 28.1041 78.5493C28.4977 77.1395 29.0067 75.8524 29.6374 74.6925C30.2628 73.5286 30.84 72.9314 31.3673 72.8971L31.4452 72.891L31.7207 72.6627C31.8669 72.4752 32.1051 72.3713 32.4391 72.3507C32.7017 72.3331 33.0745 72.3792 33.5548 72.4885C34.0371 72.5989 34.3037 72.6537 34.3572 72.6494C34.4269 72.6443 34.5159 72.5671 34.6205 72.42C34.7243 72.2714 34.8565 72.191 35.0127 72.1827C35.4513 72.1538 35.6819 72.3341 35.7085 72.7204C35.7185 72.8777 35.6984 73.0565 35.651 73.2542C35.6007 73.4533 35.5267 73.6805 35.4304 73.9434C35.3327 74.206 35.2763 74.3621 35.2631 74.4173C35.2483 74.4541 35.1672 74.514 35.0253 74.5926C34.8784 74.6712 34.799 74.7394 34.7871 74.7931C34.4714 75.9075 34.2052 77.0963 33.9861 78.3546C33.7685 79.6133 33.6697 80.3826 33.6869 80.665C33.7164 81.1028 33.8529 81.3141 34.0982 81.2997C34.3425 81.2846 34.6341 81.1136 34.9743 80.793C35.3133 80.4724 35.6064 80.151 35.8503 79.8372C36.0928 79.5191 36.2235 79.3605 36.2404 79.3586C36.2745 79.3576 36.2957 79.3915 36.2997 79.4614C36.3158 79.7247 36.2404 79.9325 36.077 80.0854L36.0773 80.085Z" fill="#2B2B2A"/>
<path id="Vector_17" d="M44.2921 72.5328C44.2264 72.8567 44.1237 73.0987 43.9847 73.2679C43.8457 73.4359 43.711 73.5416 43.5824 73.586C43.4549 73.6307 43.3895 73.6603 43.3909 73.6783C42.5623 74.4566 41.4732 75.6258 40.1227 77.1857C38.7735 78.747 37.845 79.9685 37.3379 80.8514C37.307 80.8864 37.2933 80.9401 37.2976 81.0115C37.316 81.2928 37.9194 81.3953 39.109 81.3181C40.8436 81.2041 42.1927 80.9924 43.1571 80.6833C43.3281 80.6191 43.4757 80.582 43.5985 80.5758C43.7731 80.5639 43.8651 80.6191 43.8733 80.7425C43.8884 80.9693 43.7982 81.2369 43.6072 81.5406C43.4161 81.8446 43.197 82.0037 42.9531 82.0217C42.7246 82.0347 42.6068 81.955 42.5946 81.7783C41.5379 81.7602 40.6934 81.7689 40.0641 81.8122C39.3985 81.8526 38.6708 81.933 37.877 82.0444C37.0839 82.1602 36.6267 82.2204 36.5042 82.2269C36.066 82.2565 35.8339 82.0675 35.8084 81.664C35.7793 81.1897 35.9194 80.7915 36.2312 80.4716C39.0893 77.3209 41.2272 74.7617 42.6478 72.7979L41.2304 72.8899C39.8644 72.9797 39.0745 73.1532 38.8641 73.4132C38.8465 73.4327 38.7739 73.5351 38.645 73.719C38.5178 73.9048 38.3924 74.0772 38.271 74.2352C38.1493 74.3928 38.0703 74.4725 38.0343 74.4743C37.877 74.484 37.7948 74.4295 37.7869 74.3062C37.7398 73.5679 37.9022 73.0226 38.2754 72.6717C38.6485 72.3193 39.3335 72.112 40.3324 72.0478C40.4021 72.0434 40.5145 72.0359 40.674 72.0258C40.8313 72.0149 41.0142 71.9987 41.2247 71.976C41.4333 71.9526 41.6341 71.9363 41.827 71.9244C42.5271 71.879 43.1129 71.8772 43.5824 71.9172C44.0497 71.9562 44.2893 72.0734 44.3011 72.2663C44.3087 72.372 44.3054 72.4611 44.2918 72.5325L44.2921 72.5328Z" fill="#2B2B2A"/>
<path id="Vector_18" d="M49.8336 67.2733C49.6306 67.4118 49.4593 67.6029 49.3174 67.8511C49.1752 68.0978 49.0743 68.3343 49.0197 68.5583C48.9633 68.7823 48.8789 68.9832 48.7686 69.1574C48.6558 69.333 48.5211 69.4246 48.3641 69.4369C48.2413 69.4426 48.1185 69.3146 47.9956 69.0484C47.8728 68.7823 47.7991 68.5612 47.769 68.3884C47.7438 68.0177 48.0089 67.6217 48.5624 67.1958C49.1163 66.7738 49.5588 66.5513 49.8911 66.5285C50.1375 66.5127 50.2643 66.5837 50.2729 66.7424C50.2836 66.9004 50.1382 67.0782 49.8339 67.2729L49.8336 67.2733ZM49.1971 71.3134C48.1454 74.3829 47.2216 78.4421 46.4209 83.4877C46.1174 85.3447 45.6009 86.682 44.8717 87.4975C44.1433 88.3133 43.3491 88.7489 42.491 88.8034C41.0026 88.9004 40.2077 88.1394 40.1028 86.5233C40.0769 86.0999 40.106 85.7104 40.1976 85.3512C40.2896 84.9913 40.3883 84.8084 40.4918 84.8026C40.5615 84.7969 40.6103 84.8456 40.634 84.9527L40.6498 85.217C40.7123 86.1634 40.9372 86.9273 41.3247 87.5036C41.7145 88.076 42.1624 88.3497 42.671 88.3133C43.074 88.288 43.4522 88.0431 43.8093 87.5797C44.1659 87.1144 44.4562 86.4278 44.6789 85.5099C45.4974 82.119 46.2334 78.6736 46.8868 75.1706C46.9123 75.0281 46.9209 74.8777 46.9101 74.7219C46.9062 74.6509 46.8882 74.5809 46.8573 74.512C46.8257 74.4439 46.8096 74.3829 46.8067 74.3295C46.7981 74.2062 46.8081 74.1009 46.8383 74.0122C47.0481 72.9017 47.2826 72.1501 47.5369 71.7534C47.7927 71.3566 48.1996 71.1417 48.7603 71.1056C48.9895 71.089 49.1332 71.1604 49.1964 71.3137L49.1971 71.3134Z" fill="#2B2B2A"/>
<path id="Vector_19" d="M55.1337 66.4005C55.1488 66.628 55.0004 66.9292 54.6894 67.3021C54.3801 67.6768 54.1876 67.9632 54.1139 68.1612C53.9211 68.7552 53.698 69.0971 53.4405 69.1851C53.0895 69.2075 52.8948 68.9283 52.8586 68.3484C52.8338 67.9801 53.0795 67.5564 53.5946 67.0821C54.1107 66.6071 54.568 66.3575 54.9706 66.3319C55.0593 66.3262 55.1128 66.3485 55.1333 66.4005H55.1337ZM53.9279 71.005C53.8956 71.0612 53.7917 71.2902 53.6154 71.688C53.4383 72.0898 53.2896 72.4339 53.1668 72.7257C53.0439 73.0163 52.8783 73.4416 52.6704 74.0013C52.4581 74.5618 52.2735 75.097 52.1136 75.6004C51.9527 76.1054 51.7896 76.7073 51.624 77.407C51.4563 78.1052 51.3162 78.8034 51.2052 79.4988C51.1901 79.554 51.1855 79.6221 51.1912 79.7112C51.2052 79.9226 51.2983 80.0232 51.4743 80.0116C51.5791 80.0041 51.8546 79.854 52.3025 79.5601C52.7494 79.2676 53.0428 79.1161 53.1815 79.1071C53.3047 79.0981 53.3772 79.1277 53.3992 79.1991C53.4139 79.4104 52.9929 79.8291 52.1352 80.4578C51.2803 81.086 50.6851 81.4139 50.3525 81.437C50.021 81.4564 49.8432 81.3093 49.8227 80.9941C49.8123 80.8354 49.836 80.6482 49.8924 80.4311C50.0494 79.8753 50.2106 79.299 50.373 78.7061C50.5389 78.1117 50.6628 77.654 50.7469 77.3302C50.8313 77.0077 50.9204 76.6763 51.012 76.3329C51.1057 75.9925 51.1722 75.7371 51.2153 75.5662C51.2548 75.3949 51.2918 75.2261 51.3277 75.0551C51.3586 74.8842 51.3805 74.7565 51.392 74.6656C51.4057 74.5791 51.4089 74.4904 51.4028 74.4034C51.3981 74.3317 51.3801 74.2664 51.3511 74.2072C51.3198 74.1477 51.3036 74.0998 51.3008 74.0644C51.2961 73.9945 51.3155 73.8783 51.3582 73.7178C51.6718 72.5828 51.9663 71.8226 52.24 71.4345C52.5123 71.0457 52.9401 70.8322 53.517 70.7954C53.745 70.781 53.8815 70.851 53.9272 71.0053L53.9279 71.005Z" fill="#2B2B2A"/>
<path id="Vector_20" d="M60.4596 78.2365C60.4388 77.9184 60.4503 77.627 60.4948 77.3598C60.5379 77.0907 60.6133 76.9537 60.7182 76.9465C60.8411 76.9396 60.9449 77.1812 61.0289 77.6692C61.0451 77.9159 61.1191 78.2527 61.2545 78.6866C61.3852 79.1187 61.5943 79.6149 61.877 80.1711C62.1568 80.725 62.4894 81.2408 62.873 81.7205C63.2566 82.1987 63.7369 82.5904 64.3202 82.8955C64.9017 83.2035 65.517 83.3366 66.1653 83.2922C66.2867 83.2828 66.4096 83.2702 66.5324 83.2432C67.1405 83.1476 67.7285 82.8374 68.2907 82.3087C68.8539 81.7785 69.3704 81.059 69.8399 80.1556C70.3086 79.2496 70.7425 78.3224 71.1372 77.3699C71.532 76.4159 71.9117 75.3123 72.2694 74.0504C72.6272 72.7924 72.9217 71.7151 73.1552 70.8164C73.3879 69.9187 73.6397 68.8991 73.9087 67.7616C74.1778 66.623 74.3617 65.8566 74.458 65.4617C72.4418 64.7274 70.6179 64.1792 68.9857 63.8164C67.3535 63.4568 65.6786 63.3309 63.9617 63.4417C60.7937 63.6487 59.2685 64.6751 59.3882 66.5195C59.4252 67.1002 59.5997 67.7118 59.9137 68.3538C60.229 68.9954 60.6177 69.5873 61.0839 70.1311C61.5487 70.6732 61.9937 71.1521 62.4161 71.568C62.8389 71.9813 63.2538 72.3347 63.6586 72.6261C64.1941 73.0514 64.8486 73.4319 65.6179 73.7691C66.3859 74.1074 66.8266 74.3111 66.9351 74.3721C67.0813 74.4507 67.1387 74.5304 67.1089 74.6126C67.078 74.696 66.9742 74.7237 66.7972 74.6999C65.3406 74.4742 64.0684 73.9483 62.9779 73.1206C61.9064 72.3077 60.9161 71.2888 60.0124 70.0673C59.1069 68.8457 58.6123 67.6127 58.5329 66.363C58.4586 65.2204 58.8214 64.2741 59.6159 63.5253C60.4118 62.7763 61.6151 62.3518 63.2261 62.2461C64.188 62.1837 65.2059 62.2284 66.2806 62.3767C67.3535 62.5292 68.1775 62.6829 68.7515 62.839C69.3223 62.9963 70.3362 63.3158 71.7928 63.794C73.2471 64.2741 74.2001 64.577 74.6465 64.7065C75.0168 63.3587 75.2625 62.6724 75.3836 62.6468C75.4206 62.6443 75.4533 62.6367 75.4903 62.6262C75.5229 62.6143 75.5542 62.6086 75.579 62.6068C75.6056 62.6053 75.6321 62.6006 75.6576 62.5873C75.6839 62.5786 75.7137 62.5728 75.7492 62.5714C75.8538 62.5638 75.95 62.5754 76.0416 62.6042C76.1303 62.6331 76.2076 62.6645 76.2715 62.6962C76.3354 62.7254 76.403 62.7835 76.4795 62.8664C76.5553 62.9512 76.6073 63.0125 76.6368 63.0554C76.6662 63.0983 76.7287 63.1813 76.8246 63.3079C76.9209 63.4345 76.9787 63.5127 76.9996 63.5484C77.0186 63.6007 77.0405 63.6552 77.0631 63.7165C77.084 63.7778 77.1048 63.8265 77.1246 63.8709C77.144 63.9138 77.1608 63.9556 77.1723 64.0003C77.1846 64.045 77.1917 64.0909 77.1961 64.1446C77.1993 64.2146 77.186 64.2784 77.1547 64.3354C77.1221 64.387 77.0807 64.4165 77.0287 64.4198C76.8879 64.4284 76.6802 64.3199 76.4001 64.0912C76.3229 63.9888 76.2507 63.9412 76.1813 63.9459C76.0912 63.952 76.0003 64.0321 75.9058 64.1893C75.8114 64.3451 75.737 64.5031 75.6864 64.6679C75.635 64.8295 75.6131 64.9463 75.6171 65.0156C76.6235 65.3737 77.5599 65.6442 78.4241 65.8253C79.288 66.0092 80.0002 66.0806 80.5606 66.0434C81.1213 66.0092 81.4808 65.861 81.641 65.6034C81.7376 65.4563 81.881 65.3766 82.0731 65.3643C82.2657 65.3513 82.3695 65.4166 82.3777 65.5558C82.3885 65.7297 82.2789 65.9511 82.0494 66.2112C81.6572 66.6793 81.0774 66.9375 80.3063 66.988C79.1511 67.0627 77.5258 66.6732 75.4306 65.8216C75.2593 66.4517 75.0344 67.4262 74.7496 68.7534C74.4655 70.0781 74.2112 71.2419 73.9863 72.2464C73.7582 73.249 73.4414 74.4035 73.0348 75.709C72.6261 77.0153 72.2062 78.1287 71.7726 79.048C71.3395 79.9677 70.7845 80.8387 70.1082 81.6584C69.4304 82.4789 68.6904 83.0653 67.8887 83.4192C67.443 83.6229 66.915 83.7445 66.3018 83.7852C65.4258 83.8429 64.5652 83.7134 63.7196 83.3971C62.8705 83.0834 62.2078 82.5781 61.7225 81.8878C61.3332 81.3126 61.0361 80.7005 60.8256 80.051C60.6169 79.4018 60.4955 78.7973 60.4589 78.2354L60.4596 78.2365Z" fill="#96C22C"/>
<path id="Vector_21" d="M90.8363 69.0855C90.8428 69.1912 90.712 69.6074 90.4419 70.3298C90.1722 71.0551 89.7918 71.9697 89.299 73.0794C88.8076 74.1881 88.3195 75.1983 87.8342 76.114C87.6449 76.4613 87.5012 76.7484 87.4018 76.977C87.3015 77.2046 87.238 77.3665 87.2078 77.4657C87.1801 77.5638 87.1284 77.7838 87.0541 78.1243C86.979 78.4644 86.9136 78.7601 86.8601 79.0115C86.7987 79.1392 86.7049 79.2077 86.5821 79.2145C86.4082 79.2254 86.2211 79.1273 86.0232 78.9192C85.8249 78.7129 85.7197 78.5105 85.7078 78.3172C85.7039 78.2476 85.7006 78.1362 85.6988 77.9876C85.6988 77.8376 85.696 77.7185 85.6902 77.6295C85.5347 75.2221 84.8996 72.8793 83.7862 70.6028C83.1791 71.0147 82.3692 72.4147 81.3534 74.799C80.3379 77.188 79.8559 78.7778 79.9073 79.5698C79.8656 79.7656 79.7772 79.8677 79.6368 79.8771C79.4604 79.889 79.2611 79.779 79.0341 79.546C78.8096 79.3126 78.6907 79.102 78.6774 78.908C78.6749 78.8546 78.6806 78.8175 78.6954 78.798C79.3139 76.941 79.5754 75.2459 79.4766 73.7171C79.4274 72.9608 79.3254 72.3469 79.1724 71.8705C79.019 71.3933 78.8574 71.0734 78.6889 70.909C78.5208 70.7409 78.3487 70.6655 78.1731 70.6789C78.139 70.6803 78.0201 70.7571 77.8189 70.9122C77.6182 71.0648 77.4813 71.1467 77.4131 71.1513C77.3599 71.1539 77.3322 71.1286 77.329 71.0752C77.3128 70.83 77.5187 70.4903 77.949 70.055C78.3768 69.6225 78.7151 69.3953 78.959 69.3805C79.6767 69.3344 80.1163 70.5512 80.2754 73.0296C80.3103 73.5558 80.3286 74.2703 80.3344 75.1712C80.8139 74.1333 81.4665 72.8829 82.2952 71.4164C83.1252 69.9511 83.7219 69.2038 84.09 69.1804C84.2179 68.978 84.3874 68.8698 84.5965 68.8561C84.9298 68.8356 85.1083 69.0166 85.1338 69.4043C85.1363 69.4577 85.1338 69.5334 85.122 69.6301C85.1112 69.7275 85.1051 69.8029 85.1101 69.8566C85.117 69.9608 85.2147 70.2382 85.4014 70.6843C85.5674 71.0969 85.785 71.7497 86.0541 72.6409C86.322 73.5338 86.5569 74.3157 86.7581 74.9808C86.9596 75.6466 87.0692 75.978 87.0857 75.9762C87.3306 75.96 87.822 75.0984 88.5551 73.3925C89.2889 71.6866 89.6542 70.3824 89.6481 69.4822C89.6424 69.3766 89.596 69.2204 89.512 69.0134C89.4276 68.8071 89.383 68.6423 89.3744 68.5207C89.3611 68.3094 89.4351 68.1016 89.5996 67.895L89.6262 67.8935C89.8083 67.7247 89.9513 67.6353 90.0551 67.6299C90.2846 67.6147 90.4653 67.7738 90.6014 68.1092C90.7368 68.445 90.8144 68.7703 90.836 69.0866L90.8363 69.0855Z" fill="#96C22C"/>
<path id="Vector_22" d="M96.0281 71.1047C95.8654 71.0276 95.6524 70.7275 95.3902 70.2067C95.1269 69.6841 94.9523 69.4284 94.864 69.4342C94.3216 69.4684 93.7433 70.3138 93.1309 71.9689C92.5152 73.6228 92.1499 74.923 92.0361 75.8679C91.9915 76.2751 91.9808 76.6477 92.0019 76.9809C92.0569 77.8425 92.3285 78.2569 92.8216 78.2259C93.5213 78.1812 94.2584 77.4126 95.0335 75.9242C95.8076 74.434 96.1395 72.8294 96.0281 71.1044V71.1047ZM97.8406 70.5904C97.8513 70.7318 97.7271 70.8757 97.4738 71.0243C97.2206 71.1725 96.9868 71.2541 96.777 71.2681C96.9095 73.3257 96.4886 75.1188 95.5152 76.6477C94.5407 78.1765 93.5289 78.9743 92.4786 79.0428C91.4621 79.1077 90.9071 78.4037 90.8112 76.9254C90.7854 76.5211 90.7944 76.1153 90.8389 75.7056C90.8967 75.2436 91.0153 74.6446 91.1974 73.9078C91.3777 73.1735 91.6262 72.3714 91.9402 71.5036C92.2519 70.6362 92.6564 69.8901 93.1528 69.2658C93.6506 68.6422 94.1679 68.3122 94.7109 68.2765L94.8959 68.2646C94.8798 68.0197 94.9358 67.8022 95.0644 67.6165C95.1933 67.4354 95.3801 67.333 95.6254 67.3164C95.8711 67.3197 96.1233 67.8202 96.3797 68.8171C96.6391 69.8158 96.953 70.3207 97.3233 70.3308C97.6585 70.3621 97.8316 70.448 97.8406 70.5894V70.5904Z" fill="#96C22C"/>
<path id="Vector_23" d="M102.984 63.2918C102.999 63.5208 102.852 63.8208 102.541 64.192C102.232 64.5667 102.04 64.8548 101.965 65.0521C101.773 65.6472 101.55 65.9887 101.291 66.076C100.942 66.0987 100.747 65.8192 100.71 65.24C100.686 64.8711 100.93 64.448 101.446 63.9741C101.961 63.4981 102.42 63.2492 102.823 63.2236C102.909 63.2178 102.963 63.2384 102.984 63.2918ZM101.778 67.8963C101.746 67.9525 101.644 68.1815 101.465 68.5793C101.289 68.9804 101.14 69.3252 101.019 69.6166C100.895 69.9062 100.73 70.3321 100.52 70.8926C100.309 71.4531 100.125 71.9875 99.9636 72.4914C99.8038 72.9967 99.6392 73.5982 99.4737 74.2986C99.3081 74.9969 99.1669 75.6951 99.0545 76.3904C99.0394 76.4449 99.0365 76.5138 99.0416 76.6029C99.0559 76.8135 99.1493 76.9138 99.3242 76.9019C99.4309 76.8954 99.7061 76.7439 100.153 76.4503C100.599 76.1593 100.892 76.0056 101.033 75.9966C101.156 75.9879 101.227 76.0193 101.249 76.0886C101.264 76.301 100.844 76.7204 99.9869 77.3487C99.1303 77.9788 98.5351 78.3041 98.2025 78.3268C97.8695 78.3492 97.6935 78.2002 97.6745 77.8836C97.6637 77.7252 97.6863 77.5391 97.7424 77.3224C97.8993 76.7652 98.0606 76.1903 98.2244 75.597C98.3893 75.003 98.5128 74.545 98.599 74.2211C98.6831 73.8987 98.7707 73.5672 98.8638 73.2242C98.9557 72.8841 99.0236 72.6284 99.0649 72.4564C99.1069 72.2873 99.1436 72.1159 99.1777 71.9464C99.2089 71.7762 99.2323 71.6478 99.2441 71.5573C99.256 71.4711 99.2592 71.3806 99.2535 71.2926C99.2492 71.2215 99.2309 71.1573 99.2018 71.0967C99.1705 71.039 99.1558 70.9896 99.1525 70.9553C99.1482 70.8857 99.1658 70.77 99.2089 70.608C99.5222 69.4731 99.8167 68.7135 100.09 68.3251C100.363 67.9367 100.791 67.7242 101.369 67.6871C101.595 67.6719 101.732 67.7419 101.778 67.897L101.778 67.8963Z" fill="#96C22C"/>
<path id="Vector_24" d="M108.016 68.8429C108.041 69.2129 107.979 69.5472 107.831 69.8487C107.683 70.151 107.511 70.3064 107.319 70.3187C107.109 70.3335 106.995 70.1823 106.974 69.865C106.968 69.76 106.99 69.5635 107.041 69.2767C107.094 68.9915 107.116 68.7895 107.107 68.6661C107.091 68.3837 106.933 68.2532 106.634 68.2719C106.424 68.2856 106.104 68.4523 105.677 68.77C105.249 69.0899 104.929 69.3723 104.715 69.6158C104.405 69.9883 103.987 70.9823 103.457 72.598C102.928 74.2116 102.691 75.4494 102.747 76.3092C102.789 76.9602 103.064 77.2692 103.572 77.2364C104.219 77.1946 104.851 76.9025 105.468 76.3586C106.082 75.8162 106.574 75.2737 106.942 74.7259C107.313 74.1813 107.507 73.9086 107.524 73.9086C107.615 73.9379 107.662 73.9959 107.668 74.0839C107.686 74.3486 107.503 74.7803 107.117 75.3762C106.735 75.9781 106.188 76.5602 105.477 77.1264C104.764 77.693 104.06 78.0014 103.361 78.0461C102.292 78.1139 101.718 77.526 101.637 76.2782C101.56 75.0624 101.859 73.5797 102.538 71.8222C103.216 70.0662 103.834 69.0365 104.395 68.7347C104.651 68.6128 104.928 68.4616 105.224 68.2849C105.52 68.106 105.774 67.9668 105.987 67.8637C106.201 67.7598 106.439 67.7003 106.701 67.6859C107.525 67.6303 107.961 68.0188 108.016 68.8429H108.016Z" fill="#96C22C"/>
<path id="Vector_25" d="M115.877 67.6439C115.027 69.2344 114.259 70.9926 113.565 72.9181C112.871 74.8451 112.559 76.3253 112.626 77.3625C112.642 77.6088 112.719 77.7282 112.859 77.7174C112.913 77.7141 113.061 77.6251 113.304 77.4516C113.546 77.2745 113.696 77.1872 113.747 77.184C113.836 77.1775 113.883 77.2273 113.89 77.3337C113.904 77.545 113.75 77.7794 113.433 78.0377C113.117 78.2966 112.8 78.4376 112.485 78.4571C112.047 78.4849 111.807 78.1751 111.766 77.5237C111.717 76.7685 111.893 75.6829 112.295 74.2717C112.696 72.8601 113.103 71.5707 113.523 70.4055C113.937 69.2391 114.142 68.5852 114.134 68.4442C114.131 68.4099 114.122 68.3923 114.105 68.3937C114.034 68.3995 113.886 68.5405 113.657 68.82C112.635 70.1411 111.785 71.4171 111.108 72.6549C110.433 73.8894 109.987 74.8329 109.774 75.4824C109.56 76.1301 109.332 76.6531 109.085 77.0498C108.836 77.4437 108.528 77.655 108.163 77.6785C108.005 77.6885 107.92 77.6038 107.908 77.43C107.898 77.2727 107.931 77.0924 108.006 76.8937C108.398 75.6324 108.772 74.3294 109.126 72.9816C109.477 71.6338 109.851 70.1306 110.246 68.4738C110.64 66.814 110.964 65.5005 111.218 64.5304C111.261 64.367 111.277 64.2079 111.267 64.0503C111.263 63.9807 111.249 63.9154 111.225 63.853C111.206 63.7939 111.194 63.7445 111.191 63.7106C111.187 63.6406 111.206 63.5259 111.25 63.364C111.578 62.2113 111.871 61.446 112.128 61.0684C112.385 60.6883 112.803 60.482 113.38 60.4434C113.608 60.4282 113.744 60.4997 113.79 60.6537C112.13 64.6479 110.847 68.8615 109.937 73.3008C112.281 69.0339 114.119 66.8573 115.451 66.7711C115.819 66.7473 116.01 66.8573 116.026 67.104C116.035 67.262 115.985 67.443 115.877 67.6435V67.6439Z" fill="#96C22C"/>
<path id="Vector_26" d="M126.754 69.1081C126.59 69.0309 126.379 68.7323 126.116 68.2111C125.855 67.6878 125.678 67.4325 125.59 67.4368C125.05 67.4718 124.471 68.3179 123.856 69.9733C123.242 71.6265 122.876 72.9278 122.762 73.872C122.718 74.2788 122.707 74.6521 122.727 74.9846C122.783 75.8462 123.056 76.2606 123.546 76.2296C124.248 76.1834 124.983 75.4174 125.758 73.9279C126.533 72.4377 126.865 70.8331 126.754 69.1081ZM128.568 68.5927C128.575 68.7355 128.453 68.8809 128.2 69.0276C127.945 69.1762 127.714 69.2585 127.503 69.2718C127.636 71.3308 127.215 73.1229 126.239 74.6517C125.265 76.1805 124.255 76.978 123.206 77.0465C122.188 77.1125 121.633 76.4081 121.539 74.9294C121.512 74.5251 121.521 74.1198 121.564 73.7097C121.622 73.2473 121.743 72.6472 121.923 71.9111C122.104 71.1764 122.352 70.3754 122.665 69.5077C122.979 68.6396 123.382 67.8927 123.88 67.2705C124.375 66.6462 124.895 66.3166 125.436 66.2805L125.621 66.2686C125.606 66.0234 125.664 65.8077 125.792 65.6209C125.922 65.4391 126.107 65.3371 126.354 65.3223C126.599 65.3237 126.85 65.8247 127.107 66.8215C127.366 67.8184 127.68 68.3251 128.05 68.3352C128.386 68.3666 128.559 68.4528 128.569 68.5923L128.568 68.5927Z" fill="#2B2B2A"/>
<path id="Vector_27" d="M135.915 66.3685C134.869 67.0717 133.896 67.9867 132.992 69.1156C132.089 70.2394 131.649 70.9715 131.671 71.3055C131.709 71.9384 132.033 72.7128 132.637 73.6249C133.241 74.5388 133.766 75.1598 134.207 75.4837C134.556 75.7437 134.739 75.9626 134.75 76.1383C134.756 76.2432 134.681 76.3013 134.525 76.3103C134.174 76.3337 133.757 76.1188 133.27 75.6651C132.782 75.2103 132.36 74.7425 132.005 74.2625C131.649 73.7807 131.273 73.2285 130.883 72.601L130.268 71.6607C129.652 73.8005 129.34 75.1472 129.343 75.6936C129.349 75.8169 129.201 76.0268 128.894 76.3193C128.587 76.6129 128.339 76.7651 128.146 76.7766C128.022 76.786 127.955 76.7114 127.946 76.5534C127.94 76.482 127.974 76.3114 128.047 76.0409C128.455 74.7815 128.846 73.4532 129.214 72.0621C129.582 70.6686 129.986 69.0622 130.432 67.2423C130.877 65.421 131.213 64.079 131.438 63.2174C131.496 62.9988 131.521 62.8402 131.513 62.7363C131.509 62.666 131.493 62.5992 131.461 62.5401C131.432 62.4806 131.415 62.4315 131.415 62.3973C131.409 62.3277 131.427 62.213 131.469 62.05C131.801 60.8984 132.092 60.1327 132.35 59.7558C132.607 59.3753 133.025 59.1676 133.602 59.1301C133.847 59.1142 133.982 59.1863 134.011 59.3432C133.097 61.5375 132.366 63.5016 131.818 65.2295C131.27 66.9621 130.809 68.862 130.432 70.9347L131.57 69.7759C132.329 69.0034 133.122 68.206 133.949 67.3841C134.774 66.5621 135.247 66.0947 135.361 65.9815C135.814 65.5977 136.161 65.4005 136.405 65.3839C136.509 65.3781 136.564 65.4091 136.569 65.4787C136.582 65.6724 136.365 65.9678 135.915 66.3688L135.915 66.3685Z" fill="#2B2B2A"/>
<path id="Vector_28" d="M140.783 60.8355C140.798 61.0649 140.65 61.366 140.338 61.7375C140.03 62.1118 139.836 62.3997 139.763 62.5958C139.572 63.1902 139.347 63.5336 139.089 63.619C138.737 63.6418 138.544 63.3644 138.507 62.783C138.482 62.4144 138.728 61.9925 139.243 61.5168C139.759 61.0418 140.217 60.7933 140.619 60.7666C140.708 60.7605 140.76 60.7832 140.784 60.8351L140.783 60.8355ZM139.576 65.4411C139.544 65.4973 139.44 65.7267 139.263 66.1249C139.087 66.5245 138.939 66.8696 138.815 67.1607C138.694 67.4517 138.528 67.8762 138.318 68.4367C138.106 68.9964 137.921 69.5331 137.76 70.0355C137.601 70.5407 137.436 71.1438 137.272 71.8438C137.107 72.5435 136.965 73.2406 136.854 73.9356C136.839 73.9893 136.833 74.0586 136.84 74.148C136.854 74.3594 136.946 74.4575 137.12 74.4467C137.229 74.4405 137.503 74.2894 137.951 73.9951C138.397 73.7023 138.691 73.5504 138.832 73.5421C138.954 73.5328 139.025 73.5645 139.045 73.6327C139.06 73.8447 138.641 74.2634 137.783 74.8939C136.93 75.5239 136.331 75.8492 136 75.8712C135.667 75.8922 135.492 75.7454 135.471 75.4291C135.461 75.27 135.485 75.0825 135.54 74.8657C135.697 74.31 135.859 73.7347 136.022 73.1407C136.186 72.5492 136.313 72.0887 136.396 71.7648C136.48 71.4442 136.569 71.1109 136.662 70.7694C136.752 70.4289 136.821 70.1722 136.864 70.0026C136.904 69.8303 136.942 69.6607 136.974 69.4916C137.007 69.3199 137.03 69.1912 137.041 69.1021C137.053 69.0148 137.057 68.925 137.053 68.8377C137.046 68.7667 137.029 68.7025 137 68.6415C136.969 68.582 136.952 68.5359 136.95 68.4991C136.945 68.4291 136.964 68.3137 137.007 68.1532C137.321 67.0193 137.615 66.2587 137.891 65.871C138.163 65.4797 138.589 65.268 139.168 65.2304C139.394 65.2153 139.53 65.2853 139.576 65.4411H139.576Z" fill="#2B2B2A"/>
<path id="Vector_29" d="M144.943 68.1652C144.913 67.727 144.846 67.3512 144.737 67.0406C144.629 66.7287 144.515 66.5162 144.394 66.4001C144.271 66.2843 144.151 66.231 144.026 66.2382C143.677 66.262 143.284 66.6648 142.853 67.4532C142.419 68.2405 142.107 68.9316 141.916 69.5274C141.952 69.5241 142.092 69.5241 142.338 69.5241C142.584 69.5256 142.797 69.5216 142.971 69.5108C143.687 69.4635 144.2 69.3503 144.506 69.1736C144.809 68.9936 144.957 68.6567 144.943 68.1648L144.943 68.1652ZM145.807 66.8383C145.948 67.376 146.027 67.8114 146.048 68.1457C146.075 68.5316 145.962 68.871 145.719 69.1609C145.474 69.4505 145.146 69.6658 144.731 69.8072C144.318 69.9508 143.945 70.0521 143.617 70.1174C143.287 70.1841 142.975 70.2241 142.678 70.2436C142.502 70.2559 142.305 70.2645 142.085 70.2703C141.866 70.2764 141.747 70.2775 141.729 70.2797C141.247 71.7948 141.033 72.9745 141.087 73.817C141.131 74.5196 141.417 74.8557 141.944 74.8229C142.311 74.7976 142.725 74.5362 143.186 74.0384C143.643 73.5418 144.045 73.0474 144.381 72.5583C144.72 72.0696 144.923 71.8197 144.992 71.8157C145.115 71.8081 145.182 71.8749 145.192 72.0162C145.223 72.5064 144.785 73.2176 143.877 74.1524C142.973 75.0844 142.247 75.5687 141.703 75.6041C141.265 75.6329 140.859 75.5236 140.481 75.273C140.105 75.0248 139.898 74.582 139.856 73.9504C139.844 73.7571 139.855 73.5274 139.89 73.258C139.97 72.5839 140.09 71.9239 140.252 71.2762C140.412 70.6317 140.496 70.2389 140.504 70.0947C140.237 70.0413 140.098 69.9093 140.085 69.6987C140.072 69.5064 140.213 69.3997 140.511 69.3809L140.695 69.3683C141.306 67.9336 141.657 67.1088 141.749 66.8906C142.178 65.9266 143.084 65.3989 144.469 65.3098C145.066 65.2694 145.511 65.7791 145.808 66.8387L145.807 66.8383Z" fill="#2B2B2A"/>
<path id="Vector_30" d="M154.898 64.6318C154.103 66.1851 153.381 67.9545 152.736 69.9377C152.091 71.9213 151.797 73.3971 151.86 74.3637C151.881 74.6793 151.962 74.8354 152.102 74.8261C152.155 74.8221 152.319 74.7222 152.598 74.5274C152.876 74.3327 153.04 74.2346 153.091 74.2321C153.197 74.2259 153.254 74.2732 153.26 74.3789C153.27 74.5902 153.097 74.8394 152.727 75.1276C152.359 75.4175 151.981 75.5737 151.599 75.5997C151.089 75.6314 150.812 75.27 150.764 74.5155C150.72 73.8278 150.806 73.0195 151.029 72.089C151.249 71.1546 151.611 69.9572 152.115 68.4951C152.619 67.0319 152.87 66.2897 152.87 66.2724C152.942 66.039 152.976 65.8612 152.967 65.7372C152.962 65.6513 152.933 65.607 152.878 65.6113C152.791 65.6171 152.609 65.7884 152.333 66.1238C151.633 67.0168 150.65 68.5276 149.38 70.6569C148.113 72.7887 147.473 74.0921 147.47 74.5704C147.46 74.6951 147.305 74.8748 147.003 75.1153C146.702 75.3559 146.446 75.4839 146.236 75.4972C146.113 75.5048 146.041 75.4489 146.016 75.3267C146.053 75.3771 146.325 74.4751 146.83 72.6257C147.335 70.7741 147.692 69.4357 147.902 68.6091C147.961 68.3923 147.985 68.2333 147.976 68.1294C147.973 68.0576 147.956 67.9931 147.925 67.9321C147.895 67.8726 147.879 67.8236 147.877 67.7893C147.873 67.7193 147.892 67.6039 147.933 67.4427C148.263 66.2897 148.558 65.5251 148.813 65.146C149.071 64.7666 149.489 64.5603 150.065 64.5217C150.295 64.5084 150.43 64.578 150.477 64.7324C149.23 67.7814 148.509 69.9482 148.309 71.2303C150.899 66.3658 152.96 63.883 154.502 63.7835C154.853 63.76 155.035 63.865 155.05 64.0937C155.06 64.2534 155.01 64.4312 154.898 64.6314L154.898 64.6318Z" fill="#2B2B2A"/>
<path id="Vector_31" d="M165.651 59.2201C165.666 59.4477 165.514 59.7495 165.207 60.1207C164.896 60.4954 164.704 60.7817 164.629 60.9797C164.44 61.5741 164.214 61.9171 163.956 62.0047C163.604 62.0271 163.413 61.7479 163.375 61.1669C163.351 60.7998 163.595 60.3767 164.11 59.9025C164.627 59.4268 165.084 59.1779 165.49 59.1523C165.576 59.1465 165.627 59.1674 165.651 59.2201ZM164.443 63.8246C164.412 63.8816 164.307 64.1106 164.132 64.508C163.955 64.9077 163.807 65.2542 163.684 65.5438C163.562 65.8353 163.397 66.2616 163.185 66.8217C162.975 67.3821 162.789 67.9166 162.627 68.4204C162.47 68.9254 162.305 69.5277 162.139 70.2277C161.974 70.9259 161.834 71.6238 161.72 72.3195C161.705 72.374 161.701 72.4428 161.707 72.5301C161.72 72.7425 161.815 72.8421 161.99 72.8306C162.096 72.8244 162.37 72.6726 162.818 72.379C163.267 72.0862 163.56 71.9343 163.7 71.9253C163.822 71.9166 163.893 71.9477 163.916 72.0173C163.928 72.2297 163.508 72.6491 162.654 73.2774C161.796 73.9057 161.202 74.2328 160.871 74.2551C160.536 74.2761 160.359 74.1286 160.338 73.8119C160.328 73.6536 160.352 73.4675 160.408 73.2507C160.566 72.6939 160.728 72.1186 160.89 71.5257C161.054 70.9317 161.179 70.4737 161.263 70.1498C161.348 69.8274 161.438 69.4959 161.528 69.1526C161.622 68.8143 161.689 68.5568 161.731 68.3851C161.772 68.2138 161.807 68.0443 161.843 67.8751C161.876 67.7045 161.899 67.5754 161.909 67.4863C161.92 67.3998 161.924 67.3093 161.92 67.2216C161.916 67.1506 161.897 67.0864 161.867 67.0258C161.838 66.9681 161.821 66.9183 161.818 66.8833C161.813 66.8134 161.833 66.6987 161.876 66.5367C162.189 65.4014 162.483 64.6422 162.758 64.2545C163.03 63.8657 163.458 63.6526 164.035 63.6161C164.261 63.601 164.396 63.671 164.443 63.8253V63.8246Z" fill="#2B2B2A"/>
<path id="Vector_32" d="M176.413 64.1089C176.401 63.9152 175.879 63.851 174.845 63.9181C174.548 63.9376 174.332 63.9704 174.193 64.0147C173.814 64.1442 173.144 65.2576 172.179 67.3494C171.214 69.4423 170.763 70.9566 170.824 71.8853C170.84 72.1674 170.938 72.3026 171.113 72.2929C171.288 72.2806 171.533 72.1234 171.846 71.8186C172.162 71.5185 172.449 71.1979 172.709 70.8636C172.968 70.5275 173.252 70.1621 173.56 69.7622C173.87 69.3625 174.032 69.1458 174.046 69.1086C174.485 68.5514 174.878 67.9037 175.226 67.1647C175.575 66.4282 175.855 65.7444 176.07 65.11C176.283 64.4793 176.398 64.1446 176.413 64.1096V64.1089ZM179.645 55.7149C179.702 55.7463 179.73 55.8249 179.739 55.9468C179.757 56.2296 179.652 56.7612 179.432 57.5424C179.211 58.3257 178.898 59.3424 178.496 60.5979C178.092 61.8497 177.786 62.8711 177.571 63.6627C177.589 63.6433 177.607 63.6328 177.623 63.631C177.693 63.627 177.771 63.6836 177.859 63.8001C177.944 63.921 177.99 64.0324 177.999 64.1374C178.005 64.243 177.922 64.2996 177.744 64.3116C177.517 64.3263 177.393 64.3069 177.374 64.2582C177.074 65.0693 176.716 66.3839 176.294 68.1937C175.875 70.0049 175.678 71.1103 175.703 71.5157C175.732 71.9218 175.858 72.1147 176.085 72.1003C176.346 72.0837 176.643 71.9081 176.976 71.5784C177.306 71.2506 177.595 70.9173 177.846 70.5834C178.097 70.2472 178.247 70.0795 178.302 70.0766C178.355 70.072 178.383 70.1138 178.389 70.2029C178.392 70.2563 178.383 70.3277 178.362 70.4167C178.343 70.5058 178.323 70.5834 178.298 70.6436C178.276 70.7078 178.256 70.7406 178.238 70.7417C177.862 71.173 177.331 71.6707 176.646 72.2355C175.963 72.8014 175.419 73.0957 175.016 73.1224C174.683 73.1429 174.504 72.9724 174.481 72.6002C174.42 71.6531 174.66 70.1791 175.198 68.185C174.515 69.3063 173.671 70.4925 172.673 71.7382C171.671 72.9879 170.864 73.6313 170.25 73.672C169.883 73.6955 169.682 73.4427 169.648 72.9157C169.599 72.1594 169.79 71.0483 170.226 69.5815C170.657 68.115 171.202 66.773 171.852 65.5562C172.503 64.3393 173.074 63.7154 173.562 63.6833L173.669 63.6768C173.791 63.6692 173.93 63.5931 174.09 63.4507C174.247 63.3082 174.424 63.2296 174.614 63.2177C174.878 63.2 175.253 63.2473 175.746 63.3562C176.236 63.4662 176.499 63.5195 176.533 63.5181C176.551 63.5167 176.56 63.5073 176.56 63.4885C177.6 59.9956 178.131 58.1959 178.161 58.0877C177.97 58.0992 177.864 58.0011 177.852 57.7923C177.822 57.2989 178.042 56.6404 178.516 55.813C178.576 55.667 178.713 55.5912 178.923 55.5765C179.149 55.5635 179.389 55.6067 179.644 55.7146L179.645 55.7149Z" fill="#2B2B2A"/>
<path id="Vector_33" d="M185.708 64.6703C185.581 64.8723 185.405 65.0728 185.18 65.2733C184.957 65.4724 184.784 65.5781 184.659 65.5856C184.555 65.5932 184.501 65.5427 184.491 65.4389C184.489 65.3685 184.555 65.1161 184.693 64.6822C184.831 64.2498 184.895 63.9537 184.887 63.7968C184.878 63.6738 184.831 63.6157 184.746 63.6201C184.13 63.6615 183.285 64.6689 182.211 66.6463C181.133 68.6224 180.362 70.5328 179.901 72.3815C179.807 72.5315 179.647 72.6834 179.43 72.8359C179.21 72.9924 179.022 73.0754 178.867 73.0855C178.76 73.0913 178.679 73.0534 178.621 72.9679C178.591 72.4944 178.618 72.0591 178.708 71.6656C178.797 71.2728 178.927 71.0337 179.098 70.9522C179.388 69.4681 179.589 68.3613 179.701 67.6295L179.892 66.5053C179.918 66.3787 179.927 66.2359 179.916 66.0805C179.91 65.991 179.889 65.9138 179.849 65.8457C179.809 65.7771 179.785 65.7072 179.783 65.6376C179.777 65.5319 179.785 65.4356 179.818 65.3451C180.025 64.2188 180.262 63.4437 180.526 63.0214C180.789 62.5994 181.199 62.3671 181.76 62.3318C181.971 62.3181 182.099 62.3801 182.141 62.5172C182.127 62.5706 182.02 62.8887 181.817 63.4653C181.62 64.0435 181.433 64.5855 181.265 65.0905C181.095 65.5961 180.91 66.2337 180.716 67.0059C180.519 67.7784 180.373 68.4846 180.271 69.1273C180.774 67.9476 181.581 66.5143 182.684 64.8261C183.788 63.1397 184.737 62.2705 185.526 62.2186C185.944 62.1933 186.173 62.44 186.205 62.9691C186.239 63.514 186.075 64.0821 185.708 64.6703H185.708Z" fill="#2B2B2A"/>
<path id="Vector_34" d="M193.709 62.8262C193.639 63.1489 193.539 63.3924 193.4 63.5619C193.261 63.7296 193.124 63.8338 192.998 63.8786C192.868 63.9233 192.804 63.9539 192.804 63.9705C191.978 64.7492 190.888 65.9181 189.539 67.4797C188.187 69.0414 187.261 70.2633 186.756 71.144C186.72 71.1811 186.706 71.2349 186.711 71.3059C186.729 71.5869 187.332 71.6879 188.524 71.6103C190.258 71.4971 191.608 71.2864 192.572 70.9777C192.744 70.9132 192.89 70.8764 193.011 70.8688C193.188 70.8569 193.278 70.9135 193.287 71.0369C193.302 71.2637 193.214 71.5317 193.02 71.8339C192.829 72.1383 192.613 72.2988 192.368 72.315C192.139 72.3302 192.02 72.2494 192.01 72.0727C190.955 72.0536 190.107 72.0637 189.48 72.1055C188.812 72.147 188.084 72.2274 187.292 72.3388C186.498 72.4532 186.04 72.5134 185.919 72.5213C185.483 72.5513 185.249 72.3608 185.223 71.9583C185.191 71.483 185.333 71.0845 185.648 70.7653C188.503 67.6142 190.642 65.0557 192.064 63.093L190.645 63.1847C189.278 63.2727 188.489 63.4483 188.28 63.7076C188.263 63.7274 188.189 63.8299 188.062 64.0138C187.934 64.1995 187.807 64.3698 187.686 64.5281C187.564 64.6868 187.483 64.7654 187.449 64.7687C187.292 64.7773 187.208 64.7229 187.204 64.6006C187.153 63.8609 187.316 63.317 187.692 62.9647C188.062 62.6141 188.745 62.4064 189.745 62.3411C189.815 62.336 189.931 62.3303 190.087 62.3202C190.246 62.3083 190.431 62.2938 190.64 62.2693C190.846 62.2473 191.049 62.2296 191.243 62.2181C191.943 62.1712 192.526 62.1705 192.995 62.2105C193.466 62.2502 193.706 62.3667 193.717 62.5596C193.726 62.6664 193.72 62.7558 193.708 62.8269L193.709 62.8262Z" fill="#2B2B2A"/>
<path id="Vector_35" d="M206.924 61.5439C206.93 61.6496 206.8 62.0658 206.527 62.7871C206.26 63.5128 205.878 64.4274 205.386 65.5378C204.895 66.6461 204.407 67.6567 203.921 68.5702C203.731 68.9208 203.589 69.2061 203.491 69.4347C203.389 69.6616 203.325 69.8239 203.294 69.9238C203.267 70.0219 203.215 70.2415 203.14 70.5816C203.066 70.9221 203.002 71.2175 202.946 71.4685C202.884 71.5969 202.791 71.6647 202.669 71.6722C202.494 71.6827 202.308 71.586 202.111 71.3769C201.911 71.1706 201.805 70.9686 201.794 70.7753C201.787 70.7053 201.784 70.5935 201.784 70.4457C201.784 70.2953 201.782 70.1762 201.776 70.0875C201.62 67.6801 200.984 65.3373 199.871 63.0612C199.267 63.4731 198.455 64.871 197.441 67.2571C196.423 69.6464 195.944 71.2348 195.993 72.0279C195.953 72.224 195.863 72.3247 195.721 72.3355C195.547 72.3474 195.346 72.2352 195.122 72.004C194.895 71.7707 194.776 71.5594 194.765 71.365C194.761 71.3116 194.767 71.2759 194.782 71.2568C195.404 69.3997 195.664 67.7043 195.562 66.1751C195.517 65.4174 195.413 64.8039 195.258 64.3289C195.109 63.8514 194.943 63.5319 194.774 63.367C194.609 63.1997 194.436 63.124 194.259 63.1355C194.224 63.138 194.106 63.2141 193.906 63.3699C193.704 63.525 193.569 63.6047 193.499 63.609C193.447 63.6123 193.418 63.587 193.415 63.5333C193.397 63.287 193.606 62.948 194.033 62.5134C194.464 62.0806 194.8 61.8534 195.045 61.8386C195.765 61.7928 196.205 63.0093 196.363 65.4863C196.399 66.0135 196.414 66.7284 196.42 67.6286C196.901 66.5899 197.554 65.3406 198.384 63.8745C199.21 62.4099 199.81 61.6619 200.178 61.6388C200.305 61.4365 200.474 61.3283 200.684 61.3146C201.017 61.2936 201.196 61.475 201.22 61.8609C201.224 61.9165 201.22 61.9915 201.21 62.0885C201.198 62.1848 201.193 62.2627 201.196 62.3129C201.204 62.4182 201.302 62.6973 201.487 63.142C201.654 63.555 201.872 64.207 202.142 65.0989C202.41 65.9915 202.643 66.7731 202.846 67.4385C203.045 68.1046 203.155 68.4357 203.172 68.4343C203.418 68.4177 203.91 67.5561 204.643 65.8505C205.377 64.1446 205.741 62.8401 205.735 61.9396C205.73 61.8346 205.68 61.6785 205.599 61.4722C205.516 61.2648 205.47 61.1003 205.464 60.9788C205.449 60.766 205.522 60.5597 205.683 60.353L205.713 60.3516C205.895 60.1825 206.038 60.093 206.144 60.0869C206.371 60.0721 206.551 60.2311 206.686 60.5669C206.822 60.903 206.902 61.228 206.923 61.5447L206.924 61.5439Z" fill="#2B2B2A"/>
<path id="Vector_36" d="M212.218 56.1949C212.233 56.4236 212.085 56.7236 211.776 57.0969C211.466 57.4713 211.273 57.7573 211.199 57.9556C211.008 58.5496 210.785 58.8908 210.527 58.9788C210.175 59.0008 209.982 58.722 209.944 58.1425C209.92 57.7739 210.166 57.3505 210.681 56.8762C211.196 56.4012 211.654 56.1513 212.057 56.126C212.143 56.1199 212.198 56.1412 212.218 56.1945V56.1949ZM211.011 60.8005C210.981 60.8553 210.875 61.0847 210.702 61.4829C210.524 61.8832 210.375 62.228 210.254 62.519C210.129 62.8101 209.965 63.2353 209.756 63.7954C209.544 64.3558 209.356 64.8903 209.198 65.3942C209.04 65.8995 208.874 66.501 208.707 67.2025C208.543 67.9007 208.404 68.5972 208.288 69.2929C208.273 69.3481 208.271 69.4162 208.277 69.5067C208.288 69.7174 208.383 69.8155 208.559 69.8054C208.664 69.7981 208.941 69.6474 209.386 69.3524C209.834 69.0613 210.129 68.9091 210.271 68.899C210.392 68.8918 210.461 68.9225 210.484 68.991C210.496 69.2034 210.077 69.6221 209.222 70.2508C208.365 70.8808 207.77 71.2065 207.439 71.2285C207.106 71.2512 206.929 71.1026 206.909 70.786C206.897 70.6266 206.921 70.4412 206.979 70.2241C207.134 69.6669 207.297 69.0934 207.459 68.4991C207.624 67.9065 207.75 67.4478 207.832 67.1239C207.919 66.8015 208.008 66.4697 208.098 66.1285C208.193 65.788 208.259 65.5312 208.3 65.3599C208.343 65.189 208.377 65.0194 208.413 64.8492C208.444 64.6797 208.468 64.5502 208.48 64.4615C208.49 64.3735 208.496 64.2844 208.488 64.1968C208.486 64.1257 208.468 64.0597 208.438 64.0006C208.407 63.9411 208.389 63.8924 208.387 63.8581C208.383 63.7882 208.401 63.6728 208.444 63.5101C208.759 62.3766 209.051 61.6177 209.326 61.2282C209.6 60.8391 210.026 60.6267 210.602 60.5888C210.831 60.5744 210.967 60.6443 211.011 60.8001L211.011 60.8005Z" fill="#2B2B2A"/>
<path id="Vector_37" d="M119.635 83.2005C119.49 82.869 118.99 82.4222 118.135 81.8574C117.28 81.2933 116.76 81.0506 116.569 81.1357C116.525 81.2111 116.525 81.2959 116.569 81.3878C116.618 81.4996 116.849 81.7117 117.268 82.0266C117.685 82.3418 117.916 82.5466 117.955 82.6429C118.025 82.7991 117.965 82.921 117.777 83.0028C117.698 83.0386 117.635 83.0544 117.579 83.0613C115.492 83.4739 112.982 83.7876 110.049 84.0073C107.97 84.1588 106.442 84.3492 104.953 84.4217C104.266 84.312 103.278 84.3632 103.106 84.4393C103.061 84.4603 103.033 84.4603 102.994 84.4732C102.814 84.5151 102.473 84.5612 102.225 84.6283C99.5311 85.1304 96.3688 85.5242 92.6904 85.8033C89.3481 86.0536 86.3959 86.1539 83.7854 86.1204C83.5249 86.0013 82.9718 86.0291 82.4492 86.0966H82.3766C82.3723 86.0998 82.3723 86.1056 82.3676 86.1085C81.8842 86.1755 81.4474 86.2736 81.3425 86.3212C81.234 86.3696 81.1485 86.3923 81.0742 86.401C78.2599 86.9582 74.8782 87.3845 70.9267 87.6845C66.9753 87.9799 63.5379 88.0813 60.6112 87.9774C60.4305 88.0813 60.4054 88.2847 60.5325 88.5804C60.84 89.2804 61.2933 89.7125 61.8971 89.8773C62.4998 90.0407 63.5587 90.0407 65.0802 89.8741C65.3022 89.855 65.4398 89.8344 65.5033 89.8012C65.5648 89.7792 65.6276 89.7298 65.688 89.6656C65.7501 89.6018 65.8216 89.5484 65.9056 89.5145C66.0978 89.4265 66.3018 89.3746 66.5195 89.3587C67.6269 89.2245 69.3323 89.0154 71.6469 88.7286C73.964 88.4437 75.9629 88.214 77.6569 88.0383C79.349 87.8613 80.4902 87.6488 82.2315 87.5388C82.4546 87.5237 83.0364 87.5237 83.3568 87.4746C83.3619 87.4746 83.3705 87.4779 83.3752 87.4779C84.4804 87.347 91.0977 87.1345 93.412 86.8478C95.728 86.564 97.7273 86.3335 99.4212 86.1571C101.114 85.9801 102.253 85.7694 103.995 85.658C104.267 85.6414 105.09 85.6522 105.3 85.5599C105.337 85.5422 105.359 85.5199 105.392 85.5022C105.897 85.4384 106.302 85.3745 106.327 85.3623C106.469 85.2981 106.621 85.2613 106.781 85.2461C107.602 85.1513 108.869 84.9969 110.586 84.7845C112.304 84.5764 113.788 84.4083 115.044 84.2781C116.299 84.1472 117.576 84.0412 118.868 83.9611C119.07 83.9489 119.249 83.9059 119.406 83.8389C119.689 83.7112 119.764 83.4991 119.634 83.2001L119.635 83.2005Z" fill="#96C22C"/>
</g>
</g>
<defs>
<clipPath id="clip0_1429_46">
<rect width="220" height="90" fill="white"/>
</clipPath>
</defs>
</svg>
