<svg width="60" height="60" viewBox="0 0 60 60" fill="none" xmlns="http://www.w3.org/2000/svg">
<g id="magnifying-glass 1" clip-path="url(#clip0_1435_126)">
<g id="Group">
<path id="Vector" d="M58.5791 51.3189L44.7847 37.5235C47.1285 33.7921 48.4888 29.3819 48.4888 24.6489C48.4888 11.2586 37.6337 0.405029 24.2439 0.405029C10.8541 0.405029 0 11.2586 0 24.6489C0 38.0397 10.8536 48.8923 24.2439 48.8923C29.3946 48.8923 34.1655 47.2819 38.0913 44.5457L51.7215 58.1769C52.6686 59.123 53.9102 59.5943 55.1503 59.5943C56.3919 59.5943 57.632 59.123 58.5806 58.1769C60.4733 56.2822 60.4733 53.2131 58.5791 51.3189ZM24.2439 41.0376C15.1936 41.0376 7.85617 33.7007 7.85617 24.6499C7.85617 15.5991 15.1936 8.26171 24.2439 8.26171C33.2947 8.26171 40.6316 15.5991 40.6316 24.6499C40.6316 33.7007 33.2947 41.0376 24.2439 41.0376Z" fill="white"/>
</g>
</g>
<defs>
<clipPath id="clip0_1435_126">
<rect width="60" height="60" fill="white"/>
</clipPath>
</defs>
</svg>
