<svg width="60" height="60" viewBox="0 0 60 60" fill="none" xmlns="http://www.w3.org/2000/svg">
<g id="pointer 1" clip-path="url(#clip0_1440_8)">
<g id="Group">
<path id="Vector" d="M49.7741 32.756H36.4297C35.6954 30.5954 33.6485 29.0359 31.2428 29.0359C28.837 29.0359 26.7901 30.5954 26.0558 32.756H16.3035C14.1654 32.756 12.426 31.0166 12.426 28.8785C12.426 26.7423 14.164 25.0043 16.3002 25.0043H49.358C50.4459 25.0043 51.4951 24.5469 52.2362 23.7495C55.778 19.9383 60 14.5703 60 10.6395C60 4.77281 55.2259 0 49.358 0C43.4899 0 38.7158 4.77281 38.7158 10.6395C38.7158 13.8418 41.5179 17.9977 44.4714 21.4888H16.3002C12.2255 21.4888 8.91035 24.8039 8.91035 28.8786C8.91035 32.9552 12.2269 36.2716 16.3035 36.2716H26.0558C26.7901 38.4322 28.837 39.9918 31.2428 39.9918C33.6485 39.9918 35.6954 38.4322 36.4297 36.2716H49.7741C53.4741 36.2716 56.4844 39.282 56.4844 42.982C56.4844 46.6821 53.4741 49.6923 49.7741 49.6923H43.9481C43.2138 47.5317 41.1669 45.9722 38.7612 45.9722C36.3554 45.9722 34.3085 47.5317 33.5742 49.6923H16.9211C16.108 45.8183 12.6647 42.9002 8.55176 42.9002C3.83637 42.9002 0 46.7357 0 51.4501C0 56.1646 3.83637 60 8.55188 60C12.6648 60 16.108 57.0819 16.9212 53.2079H33.5742C34.3085 55.3685 36.3554 56.928 38.7612 56.928C41.1669 56.928 43.2138 55.3685 43.9481 53.2079H49.7741C55.4127 53.2079 60 48.6206 60 42.982C60 37.3434 55.4127 32.756 49.7741 32.756ZM49.358 3.51562C53.2874 3.51562 56.4844 6.71145 56.4844 10.6395C56.4844 12.7209 53.8698 16.8273 49.6609 21.3563C49.5592 21.4658 49.44 21.4888 49.358 21.4888C49.2759 21.4888 49.1568 21.4658 49.0549 21.3563C44.8461 16.8274 42.2314 12.7211 42.2314 10.6396C42.2316 6.71145 45.4284 3.51562 49.358 3.51562ZM31.2428 36.4761C30.1608 36.4761 29.2805 35.5958 29.2805 34.5138C29.2805 33.4318 30.1608 32.5515 31.2428 32.5515C32.3248 32.5515 33.2051 33.4318 33.2051 34.5138C33.2051 35.5958 32.3249 36.4761 31.2428 36.4761ZM8.55188 56.4844C5.77488 56.4844 3.51562 54.2261 3.51562 51.4501C3.51562 48.6742 5.77488 46.4159 8.55188 46.4159C11.3289 46.4159 13.5881 48.6742 13.5881 51.4501C13.5881 54.2261 11.3289 56.4844 8.55188 56.4844ZM38.7612 53.4124C37.6792 53.4124 36.7989 52.5321 36.7989 51.4501C36.7989 50.3681 37.6792 49.4878 38.7612 49.4878C39.8432 49.4878 40.7235 50.3681 40.7235 51.4501C40.7235 52.5321 39.8433 53.4124 38.7612 53.4124Z" fill="#8EC43F"/>
<path id="Vector_2" d="M51.1187 10.7444C51.076 9.792 50.3463 8.98657 49.3609 8.98657C48.4414 8.98657 47.5605 9.79505 47.603 10.7444C47.6457 11.6968 48.3754 12.5022 49.3609 12.5022C50.2803 12.5022 51.1612 11.6937 51.1187 10.7444Z" fill="#8EC43F"/>
</g>
</g>
<defs>
<clipPath id="clip0_1440_8">
<rect width="60" height="60" fill="white"/>
</clipPath>
</defs>
</svg>
