<svg width="100" height="100" viewBox="0 0 100 100" fill="none" xmlns="http://www.w3.org/2000/svg">
<g id="play-button 1">
<path id="Vector" d="M98.3359 50C98.3359 59.3916 95.6393 68.4988 90.5377 76.3369C89.8021 77.467 88.2898 77.7869 87.1598 77.0512C86.0297 76.3156 85.71 74.8033 86.4455 73.6732C91.0299 66.6299 93.4531 58.4437 93.4531 50C93.4531 26.0377 73.9584 6.54297 49.9961 6.54297C26.0338 6.54297 6.53906 26.0377 6.53906 50C6.53906 73.9623 26.0338 93.457 49.9961 93.457C58.4398 93.457 66.626 91.0338 73.6693 86.4494C74.7992 85.7137 76.3117 86.0336 77.0473 87.1637C77.7828 88.2938 77.4631 89.8061 76.333 90.5416C68.4951 95.6432 59.3879 98.3398 49.9961 98.3398C37.084 98.3398 24.9449 93.3115 15.8146 84.1814C6.68437 75.0514 1.65625 62.9121 1.65625 50C1.65625 37.0879 6.68457 24.9488 15.8146 15.8186C24.9447 6.68828 37.084 1.66016 49.9961 1.66016C62.9082 1.66016 75.0473 6.68848 84.1775 15.8186C93.3078 24.9486 98.3359 37.0879 98.3359 50ZM80.7742 80.6793L80.6754 80.7781C79.7207 81.7303 79.7186 83.2762 80.6707 84.2309C81.1477 84.7092 81.7734 84.9482 82.3994 84.9482C83.023 84.9482 83.6469 84.7107 84.1234 84.2355L84.2318 84.1271C85.184 83.1725 85.1818 81.6266 84.2271 80.6744C83.2721 79.7223 81.7264 79.7246 80.7742 80.6793ZM71.8809 46.3869C73.1232 47.199 73.8357 48.5158 73.8357 50C73.8357 51.4842 73.1232 52.8012 71.8809 53.6131L42.8234 72.6049C42.0979 73.0791 41.2846 73.318 40.4676 73.318C39.7664 73.318 39.0623 73.1422 38.408 72.7881C36.9914 72.0217 36.1457 70.6025 36.1457 68.9918V31.0082C36.1457 29.3975 36.9914 27.9783 38.408 27.2117C39.8246 26.4451 41.4754 26.5137 42.8236 27.3951L71.8809 46.3869ZM68.484 50L41.0283 32.0553V67.9449L68.484 50Z" fill="white"/>
</g>
</svg>
