<svg width="40" height="40" viewBox="0 0 40 40" fill="none" xmlns="http://www.w3.org/2000/svg">
    <g id="tik-tok 1" class="transition-kaemde group-hover:opacity-100" opacity="0.5">
    <g id="Group">
    <path id="Vector" d="M37.5232 10.0305C35.2404 10.0305 33.1342 9.27427 31.4428 7.99849C29.5029 6.53599 28.1092 4.39067 27.617 1.91802C27.4951 1.30708 27.4295 0.676611 27.4232 0.0305176H20.9021V17.8493L20.8943 27.6094C20.8943 30.2188 19.1951 32.4313 16.8396 33.2094C16.156 33.4352 15.4178 33.5422 14.649 33.5C13.6678 33.4461 12.7482 33.15 11.949 32.6719C10.2482 31.6547 9.0951 29.8094 9.06385 27.6985C9.01463 24.3993 11.6818 21.7094 14.9787 21.7094C15.6295 21.7094 16.2545 21.8157 16.8396 22.0086V17.1383V15.3875C16.2224 15.2961 15.5943 15.2485 14.9592 15.2485C11.3506 15.2485 7.97557 16.7485 5.56307 19.4508C3.73963 21.493 2.64588 24.0985 2.47713 26.8305C2.25604 30.4196 3.56932 33.8313 6.11619 36.3485C6.49041 36.718 6.88338 37.061 7.29432 37.3774C9.47791 39.0579 12.1474 39.9688 14.9592 39.9688C15.5943 39.9688 16.2224 39.9219 16.8396 39.8305C19.4662 39.4414 21.8896 38.2391 23.8021 36.3485C26.1521 34.0258 27.4506 30.9422 27.4646 27.6602L27.431 13.0852C28.5521 13.95 29.7779 14.6657 31.0935 15.2211C33.1396 16.0844 35.3092 16.5219 37.542 16.5211V11.786V10.029C37.5435 10.0305 37.5248 10.0305 37.5232 10.0305Z" fill="#F3F3F3"/>
    </g>
    </g>
</svg>     